PathFileType	4	(X/Y/Z)	Walk2.trc
DataRate	CameraRate	NumFrames	NumMarkers	Units	OrigDataRate	OrigDataStartFrame	OrigNumFrames
200.000000	200.000000	7	68	mm	200.000000	695	862
Frame#	Times		LFHD		LowerBodyModelVer		RCAR		RWRU		LElbow		LTH2		RACR1		RUA1		RASI		RFA1		LACR1		LTH4		LTB1		LLFC		RTH2		LMT5		LUA1		LTB4		LTB3		LTB2		LToe		LMT1		RTH4		LASI		PELOrigin		LLMAL		RBHD		STRN		RLFC		CLAV		RTH3		LFA1		LWRU		RBack		LPSI		RMT1		RMT5		LCAR		RTH1		RTB2		RCAL		LTH1		C7		RLMAL		RFHD		LBHD		RToe		RPSI		LHJC		MidPelvis		OPelvis		RHJC		SACR		XPelvis		YPelvis		ZPelvis		LWRR		RTB1		RTB3		RTB4		RMMAL		RWRR		RElbow		LTH3		LMMAL		T10		LCAL		LElbowM
			X1	Y1	Z1	X2	Y2	Z2	X3	Y3	Z3	X4	Y4	Z4	X5	Y5	Z5	X6	Y6	Z6	X7	Y7	Z7	X8	Y8	Z8	X9	Y9	Z9	X10	Y10	Z10	X11	Y11	Z11	X12	Y12	Z12	X13	Y13	Z13	X14	Y14	Z14	X15	Y15	Z15	X16	Y16	Z16	X17	Y17	Z17	X18	Y18	Z18	X19	Y19	Z19	X20	Y20	Z20	X21	Y21	Z21	X22	Y22	Z22	X23	Y23	Z23	X24	Y24	Z24	X25	Y25	Z25	X26	Y26	Z26	X27	Y27	Z27	X28	Y28	Z28	X29	Y29	Z29	X30	Y30	Z30	X31	Y31	Z31	X32	Y32	Z32	X33	Y33	Z33	X34	Y34	Z34	X35	Y35	Z35	X36	Y36	Z36	X37	Y37	Z37	X38	Y38	Z38	X39	Y39	Z39	X40	Y40	Z40	X41	Y41	Z41	X42	Y42	Z42	X43	Y43	Z43	X44	Y44	Z44	X45	Y45	Z45	X46	Y46	Z46	X47	Y47	Z47	X48	Y48	Z48	X49	Y49	Z49	X50	Y50	Z50	X51	Y51	Z51	X52	Y52	Z52	X53	Y53	Z53	X54	Y54	Z54	X55	Y55	Z55	X56	Y56	Z56	X57	Y57	Z57	X58	Y58	Z58	X59	Y59	Z59	X60	Y60	Z60	X61	Y61	Z61	X62	Y62	Z62	X63	Y63	Z63	X64	Y64	Z64	X65	Y65	Z65	X66	Y66	Z66	X67	Y67	Z67	X68	Y68	Z68

695	3.475	243.43	1592.3	43.619	9	2014	4	164.2	778.2	385.83	121.63	829.5	403.87	107.14	1091.8	-226.06	245.27	663.5	-152.35	122.81	1373.8	260.32	94.521	1226.5	341.93	241.65	965.33	227.08	132	938.27	381.3	136.93	1383.1	-97.507	191.06	657.8	-178.84	134.65	335.96	-84.119	169.03	499.14	-156.35	221.06	639.79	219.25	-75.462	82.141	-154.02	137.28	1239.2	-182.74	66.322	284.02	-81.812	3.7096	225.13	-80.316	47.211	305.27	-135.81	-4.458	44.453	-100.31	-32.393	62.959	-82.873	166.08	639.55	243.83	216.06	987.91	-117.95	228.86	976.62	54.561	-111.08	197.07	-116.41	78.81	1576.5	157.81	273.49	1241.4	98.765	158.93	460.53	207.45	205.62	1353.2	84.611	160.11	554.26	225.31	202.66	993.88	-241.28	223.71	877.68	-273.14	-8.4501	1305.9	178.34	-17.806	988.07	-29.346	278.14	33.742	98.699	265.87	28.449	190.96	273.26	843.8	-264.5	184.94	718.71	260.74	186.73	272.38	185.34	89.394	27.266	137.5	189.39	741.73	-192.21	42.226	1418.5	94.445	143.03	65.255	181.43	234.43	1595.6	138.53	91.664	1571.8	22.227	322.55	32.708	106.73	-18.915	984.12	105.06	136.34	875.98	-63.622	105.25	981.36	46.21	228.86	976.62	54.561	153.74	860.62	171	-18.361	986.1	37.859	308.59	974.28	48.496	231.58	1056.4	59.581	234.76	971.41	134.17	262.06	890.22	-209.88	209.68	353.32	120.18	177.01	170.95	103.95	193.34	262.13	112.07	159.42	72.754	95.215	163.92	838.36	342.74	58.181	1061.1	372.65	196.15	570.78	-165.41	-75.925	176.33	-41.987	3.8223	1088.9	56.317	-159.46	196.87	-55.219	82.876	1054	-123.87
696	3.48	247.96	1592.5	44.085	9	2014	4	170.51	778.82	386.78	127.82	829.98	404.86	110.21	1092	-225.72	251.38	665.02	-152.6	127.63	1374.1	260.84	99.699	1226.7	342.55	245.37	964.56	227.48	137.82	938.78	382.16	141.34	1383.2	-97.146	197.14	658.88	-178.99	144.21	336.74	-84.675	176.68	500.11	-156.29	223.34	639.42	219.52	-62.711	82.172	-155.45	140.94	1239.3	-182.38	76.614	284.16	-82.59	14.353	224.78	-81.117	56.675	305.75	-136.11	8.9616	44.705	-102.12	-19.283	62.839	-84.496	168.35	639.57	244.22	219.72	987.57	-117.85	232.55	976.07	54.813	-100.46	195.78	-116.53	83.433	1576.8	158.4	278.05	1241.2	98.873	160.16	460.47	207.6	210.12	1353.3	85.112	161.98	554.22	225.58	204.33	992.99	-242	223.5	876.57	-274.25	-3.9073	1306.3	179.14	-13.936	988.53	-28.751	278.16	33.722	98.714	265.86	28.457	190.97	272.79	842.2	-266.32	187.6	718.55	261.13	187.25	272.25	185.46	89.379	27.278	137.44	194.68	742.85	-192.13	46.79	1418.8	94.92	143.05	65.27	181.36	239.04	1595.9	139	96.172	1572	22.816	322.63	32.682	106.83	-14.882	984.69	105.65	139.46	875.83	-63.532	109.07	981.34	46.632	232.55	976.07	54.813	156.91	860.19	171.29	-14.409	986.61	38.45	312.27	973.39	48.712	235.62	1055.8	59.9	238.46	970.77	134.42	262.68	888.53	-211.4	210.43	353.17	120.36	177.31	170.88	103.97	193.87	262.03	112.16	159.47	72.723	95.152	169.91	838.96	343.67	63.654	1061.4	373.62	202.97	571.87	-165.64	-64.82	174.92	-42.34	8.0273	1089.4	56.859	-149.01	194.1	-55.232	86.941	1053.9	-124.03
697	3.485	252.5	1592.7	44.518	9	2014	4	176.81	779.42	387.74	134.01	830.46	405.86	113.3	1092.3	-225.4	257.41	666.5	-152.86	132.47	1374.4	261.32	104.85	1226.9	343.13	249.05	963.78	227.91	143.63	939.28	383	145.77	1383.2	-96.788	203.12	659.91	-179.13	153.81	337.49	-85.19	184.28	501.04	-156.2	225.62	639.01	219.81	-49.627	81.919	-156.69	144.62	1239.3	-182.03	86.951	284.18	-83.291	25.13	224.29	-81.863	66.23	306.06	-136.38	22.679	44.866	-103.63	-5.9084	62.602	-85.88	170.62	639.54	244.6	223.37	987.19	-117.79	236.21	975.49	55.063	-89.605	194.19	-116.68	88.062	1577.1	158.96	282.61	1241	98.907	161.38	460.41	207.73	214.61	1353.5	85.592	163.83	554.17	225.83	205.99	992.09	-242.74	223.24	875.47	-275.38	0.63091	1306.7	179.92	-10.042	989.01	-28.2	278.19	33.702	98.729	265.84	28.467	190.98	272.25	840.59	-268.15	190.24	718.36	261.55	187.75	272.12	185.6	89.366	27.291	137.38	199.88	743.92	-192.08	51.35	1419.1	95.373	143.07	65.288	181.28	243.66	1596.1	139.43	100.69	1572.2	23.367	322.7	32.659	106.93	-10.873	985.26	106.18	142.54	875.65	-63.466	112.88	981.31	47.027	236.21	975.49	55.063	160	859.73	171.61	-10.458	987.13	38.992	315.92	972.45	48.937	239.64	1055.2	60.21	242.12	970.09	134.66	263.23	886.81	-212.93	211.21	353.03	120.54	177.62	170.81	103.99	194.41	261.92	112.27	159.53	72.693	95.083	175.89	839.54	344.59	69.131	1061.7	374.56	209.68	572.93	-165.85	-53.548	173.33	-42.678	12.22	1089.8	57.383	-138.37	191.04	-55.362	91.118	1053.7	-124.24
698	3.49	257.05	1592.9	44.92	9	2014	4	183.09	780	388.71	140.19	830.92	406.85	116.4	1092.5	-225.11	263.37	667.92	-153.14	137.32	1374.6	261.78	109.98	1227.1	343.68	252.67	962.98	228.38	149.44	939.76	383.83	150.23	1383.3	-96.431	209.02	660.89	-179.26	163.45	338.2	-85.662	191.83	501.92	-156.06	227.9	638.58	220.11	-36.226	81.393	-157.77	148.3	1239.4	-181.69	97.328	284.09	-83.904	36.038	223.65	-82.539	75.878	306.22	-136.62	36.682	44.936	-104.85	7.7241	62.248	-87.038	172.89	639.47	244.97	227.02	986.78	-117.75	239.85	974.88	55.315	-78.53	192.31	-116.86	92.698	1577.4	159.47	287.17	1240.7	98.866	162.6	460.35	207.86	219.11	1353.6	86.049	165.68	554.11	226.06	207.63	991.18	-243.5	222.93	874.4	-276.53	5.1677	1307.1	180.68	-6.1222	989.49	-27.695	278.21	33.682	98.743	265.83	28.477	190.99	271.62	838.98	-269.97	192.88	718.16	261.98	188.26	271.98	185.73	89.355	27.306	137.31	205	744.92	-192.07	55.907	1419.4	95.811	143.09	65.308	181.2	248.29	1596.4	139.83	105.21	1572.4	23.883	322.78	32.638	107.03	-6.8885	985.81	106.66	145.59	875.43	-63.421	116.67	981.26	47.399	239.85	974.88	55.315	163.04	859.25	171.94	-6.5054	987.65	39.483	319.54	971.48	49.176	243.65	1054.6	60.516	245.75	969.41	134.91	263.73	885.1	-214.48	212.02	352.87	120.74	177.94	170.74	104.02	194.98	261.8	112.38	159.59	72.666	95.009	181.86	840.09	345.51	74.607	1061.9	375.47	216.29	573.95	-166.01	-42.106	171.56	-42.996	16.402	1090.3	57.89	-127.52	187.7	-55.589	95.37	1053.4	-124.48
699	3.495	261.61	1593	45.291	9	2014	4	189.35	780.57	389.68	146.36	831.38	407.84	119.5	1092.8	-224.84	269.25	669.29	-153.43	142.18	1374.9	262.21	115.08	1227.3	344.21	256.26	962.18	228.87	155.25	940.24	384.65	154.71	1383.3	-96.073	214.83	661.8	-179.37	173.11	338.85	-86.082	199.34	502.76	-155.88	230.18	638.11	220.42	-22.526	80.608	-158.68	152	1239.5	-181.37	107.75	283.89	-84.42	47.073	222.87	-83.132	85.62	306.2	-136.81	50.961	44.912	-105.83	21.609	61.777	-87.988	175.16	639.36	245.32	230.68	986.33	-117.73	243.47	974.25	55.571	-67.232	190.14	-117.06	97.34	1577.7	159.96	291.73	1240.3	98.754	163.82	460.29	207.99	223.61	1353.7	86.481	167.52	554.04	226.28	209.24	990.28	-244.27	222.58	873.36	-277.69	9.7058	1307.5	181.42	-2.1786	989.97	-27.237	278.23	33.663	98.757	265.81	28.487	191	270.92	837.37	-271.78	195.51	717.95	262.43	188.77	271.84	185.87	89.345	27.322	137.24	210.04	745.85	-192.1	60.462	1419.6	96.235	143.12	65.331	181.13	252.93	1596.6	140.21	109.75	1572.6	24.365	322.86	32.619	107.12	-2.9263	986.35	107.09	148.63	875.18	-63.394	120.46	981.21	47.748	243.47	974.25	55.571	166.02	858.75	172.29	-2.5524	988.16	39.925	323.14	970.49	49.43	247.64	1054	60.819	249.34	968.71	135.16	264.16	883.38	-216.03	212.86	352.71	120.96	178.28	170.67	104.04	195.57	261.69	112.5	159.67	72.643	94.932	187.82	840.62	346.44	80.08	1062.1	376.35	222.81	574.92	-166.14	-30.491	169.61	-43.287	20.574	1090.7	58.382	-116.46	184.1	-55.891	99.66	1053.2	-124.71
700	3.5	266.19	1593	45.633	9	2014	4	195.6	781.12	390.65	152.53	831.84	408.83	122.6	1093	-224.58	275.05	670.61	-153.73	147.05	1375.1	262.61	120.14	1227.4	344.7	259.81	961.38	229.39	161.05	940.69	385.46	159.22	1383.2	-95.713	220.56	662.65	-179.46	182.81	339.46	-86.442	206.82	503.56	-155.66	232.46	637.63	220.75	-8.5432	79.579	-159.44	155.71	1239.5	-181.06	118.2	283.59	-84.835	58.235	221.94	-83.629	95.457	306	-136.96	65.504	44.8	-106.58	35.739	61.193	-88.748	177.42	639.23	245.67	234.36	985.87	-117.73	247.08	973.62	55.832	-55.713	187.69	-117.27	101.99	1577.9	160.4	296.28	1239.9	98.57	165.04	460.24	208.13	228.11	1353.7	86.883	169.35	553.97	226.49	210.83	989.39	-245.05	222.19	872.35	-278.85	14.248	1307.9	182.14	1.7874	990.46	-26.823	278.25	33.643	98.772	265.8	28.497	191.01	270.15	835.77	-273.59	198.14	717.72	262.87	189.28	271.71	186.02	89.337	27.337	137.17	214.99	746.7	-192.15	65.017	1419.9	96.65	143.15	65.354	181.05	257.57	1596.7	140.55	114.3	1572.7	24.812	322.94	32.603	107.21	1.0139	986.88	107.46	151.66	874.9	-63.381	124.24	981.15	48.075	247.08	973.62	55.832	168.96	858.25	172.66	1.4007	988.67	40.318	326.74	969.48	49.7	251.63	1053.3	61.122	252.92	968.01	135.42	264.53	881.67	-217.59	213.73	352.54	121.19	178.64	170.6	104.07	196.19	261.57	112.63	159.74	72.625	94.854	193.77	841.12	347.35	85.548	1062.3	377.2	229.25	575.84	-166.21	-18.7	167.49	-43.549	24.738	1091	58.856	-105.17	180.23	-56.248	103.96	1052.9	-124.94
701	3.505	270.77	1593.1	45.946	9	2014	4	201.83	781.65	391.63	158.68	832.28	409.82	125.7	1093.2	-224.33	280.78	671.86	-154.02	151.94	1375.3	262.97	125.17	1227.6	345.17	263.33	960.59	229.94	166.84	941.14	386.25	163.75	1383.2	-95.351	226.22	663.42	-179.52	192.52	340.01	-86.734	214.25	504.32	-155.39	234.74	637.13	221.1	5.7094	78.326	-160.07	159.44	1239.6	-180.77	128.7	283.19	-85.144	69.522	220.87	-84.019	105.39	305.63	-137.06	80.301	44.603	-107.13	50.112	60.498	-89.34	179.69	639.07	245.99	238.05	985.39	-117.74	250.69	972.99	56.1	-43.973	184.98	-117.47	106.64	1578.2	160.82	300.82	1239.4	98.317	166.25	460.19	208.28	232.63	1353.6	87.253	171.17	553.89	226.69	212.39	988.51	-245.84	221.76	871.38	-280.02	18.797	1308.2	182.84	5.7733	990.95	-26.455	278.27	33.624	98.787	265.79	28.506	191.02	269.31	834.2	-275.37	200.77	717.49	263.32	189.81	271.58	186.17	89.33	27.353	137.1	219.86	747.46	-192.24	69.574	1420.1	97.057	143.19	65.379	180.98	262.22	1596.9	140.86	118.86	1572.8	25.227	323.01	32.588	107.3	4.9325	987.38	107.78	154.7	874.61	-63.378	128.02	981.08	48.381	250.69	972.99	56.1	171.89	857.74	173.05	5.3529	989.16	40.663	330.33	968.48	49.988	255.61	1052.7	61.425	256.48	967.31	135.69	264.83	879.97	-219.16	214.64	352.37	121.43	179	170.53	104.11	196.82	261.45	112.77	159.81	72.612	94.776	199.72	841.59	348.26	91.009	1062.5	378.02	235.63	576.7	-166.22	-6.7297	165.19	-43.777	28.894	1091.4	59.314	-93.634	176.11	-56.639	108.25	1052.7	-125.14
